<svg width="20" height="20" viewBox="0 0 20 20" fill="none" xmlns="http://www.w3.org/2000/svg">
<path d="M18 13C18 13 16.6 14.3 19.1 15L16.3 17.8H13.5C13.5 17.8 11.6 17.7 13 20H9L7 18C7 18 5.7 16.6 5 19.1L2.2 16.3V13.5C2.2 13.5 2.3 11.6 0 13V9L2 7C2 7 3.4 5.7 0.8 5.1L3.6 2.2H6.5C6.5 2.2 8.4 2.3 7 0H11L13 2C13 2 14.3 3.4 15 0.8L17.8 3.6V6.5C17.8 6.5 17.7 8.4 20 7V11L18 13ZM12 10C12 9.46957 11.7893 8.96086 11.4142 8.58579C11.0391 8.21071 10.5304 8 10 8C9.46957 8 8.96086 8.21071 8.58579 8.58579C8.21071 8.96086 8 9.46957 8 10C8 10.5304 8.21071 11.0391 8.58579 11.4142C8.96086 11.7893 9.46957 12 10 12C10.5304 12 11.0391 11.7893 11.4142 11.4142C11.7893 11.0391 12 10.5304 12 10Z" fill="#CCCCCC"/>
</svg>
