<svg width="12" height="12" viewBox="0 0 12 12" fill="none" xmlns="http://www.w3.org/2000/svg">
<path d="M10.375 5.375H6.625V1.625C6.625 1.45924 6.55915 1.30027 6.44194 1.18306C6.32473 1.06585 6.16576 1 6 1C5.83424 1 5.67527 1.06585 5.55806 1.18306C5.44085 1.30027 5.375 1.45924 5.375 1.625V5.375H1.625C1.45924 5.375 1.30027 5.44085 1.18306 5.55806C1.06585 5.67527 1 5.83424 1 6C1 6.16576 1.06585 6.32473 1.18306 6.44194C1.30027 6.55915 1.45924 6.625 1.625 6.625H5.375V10.375C5.375 10.5408 5.44085 10.6997 5.55806 10.8169C5.67527 10.9342 5.83424 11 6 11C6.16576 11 6.32473 10.9342 6.44194 10.8169C6.55915 10.6997 6.625 10.5408 6.625 10.375V6.625H10.375C10.5408 6.625 10.6997 6.55915 10.8169 6.44194C10.9342 6.32473 11 6.16576 11 6C11 5.83424 10.9342 5.67527 10.8169 5.55806C10.6997 5.44085 10.5408 5.375 10.375 5.375Z" fill="white" fill-opacity="1"/>
<path d="M10.375 5.275H6.725V1.625C6.725 1.43272 6.64862 1.24831 6.51265 1.11235C6.37669 0.976384 6.19228 0.9 6 0.9C5.80772 0.9 5.62331 0.976384 5.48735 1.11235C5.35138 1.24831 5.275 1.43272 5.275 1.625V5.275H1.625C1.43272 5.275 1.24831 5.35138 1.11235 5.48735C0.976384 5.62331 0.9 5.80772 0.9 6C0.9 6.19228 0.976384 6.37669 1.11235 6.51265C1.24831 6.64862 1.43272 6.725 1.625 6.725H5.275V10.375C5.275 10.5673 5.35138 10.7517 5.48735 10.8877C5.62331 11.0236 5.80772 11.1 6 11.1C6.19228 11.1 6.37669 11.0236 6.51265 10.8877C6.64862 10.7517 6.725 10.5673 6.725 10.375V6.725H10.375C10.5673 6.725 10.7517 6.64862 10.8877 6.51265C11.0236 6.37669 11.1 6.19228 11.1 6C11.1 5.80772 11.0236 5.62331 10.8877 5.48735C10.7517 5.35138 10.5673 5.275 10.375 5.275Z" stroke="white" stroke-opacity="1" stroke-width="0.2"/>
</svg>
