<svg width="24" height="24" viewBox="0 0 24 24" fill="none" xmlns="http://www.w3.org/2000/svg">
<path d="M20 9.66998V9.49998C20.0061 7.79893 19.4664 6.14078 18.4602 4.7692C17.454 3.39762 16.0344 2.38494 14.41 1.87998H14.35C13.511 1.62422 12.6369 1.50272 11.76 1.51998C9.67183 1.63458 7.7061 2.54173 6.264 4.05631C4.8219 5.57089 4.01214 7.5787 4 9.66998C3.41401 9.87612 2.90646 10.2591 2.54742 10.766C2.18837 11.2729 1.99554 11.8788 1.99554 12.5C1.99554 13.1212 2.18837 13.727 2.54742 14.234C2.90646 14.7409 3.41401 15.1238 4 15.33C4.20597 17.3048 5.13892 19.1324 6.61748 20.4576C8.09604 21.7827 10.0145 22.5107 12 22.5H12.23C14.15 22.4071 15.9749 21.6368 17.3809 20.3261C18.7868 19.0153 19.6829 17.2487 19.91 15.34C20.5029 15.1455 21.0204 14.771 21.3904 14.2686C21.7605 13.7662 21.9647 13.1609 21.9746 12.537C21.9845 11.9132 21.7996 11.3017 21.4457 10.7878C21.0918 10.2739 20.5864 9.88318 20 9.66998ZM12.18 20.5C10.7324 20.5419 9.3185 20.0587 8.1992 19.1398C7.07991 18.2208 6.33076 16.928 6.09 15.5H17.86C17.6159 16.8519 16.922 18.0815 15.8908 18.9892C14.8597 19.8969 13.5519 20.4294 12.18 20.5ZM19 13.5H5C4.73478 13.5 4.48043 13.3946 4.29289 13.2071C4.10536 13.0196 4 12.7652 4 12.5C4 12.2348 4.10536 11.9804 4.29289 11.7929C4.48043 11.6053 4.73478 11.5 5 11.5H7C7.26522 11.5 7.51957 11.3946 7.70711 11.2071C7.89464 11.0196 8 10.7652 8 10.5C8 10.2348 7.89464 9.98041 7.70711 9.79288C7.51957 9.60534 7.26522 9.49998 7 9.49998H6C6.04476 8.4626 6.34126 7.45168 6.86392 6.55445C7.38657 5.65723 8.11969 4.90064 9 4.34998V7.49998C9 7.7652 9.10536 8.01955 9.29289 8.20709C9.48043 8.39463 9.73479 8.49998 10 8.49998C10.2652 8.49998 10.5196 8.39463 10.7071 8.20709C10.8946 8.01955 11 7.7652 11 7.49998V3.58998C11.2714 3.54464 11.5452 3.51459 11.82 3.49998H12C12.3351 3.5047 12.6694 3.53479 13 3.58998V7.49998C13 7.7652 13.1054 8.01955 13.2929 8.20709C13.4804 8.39463 13.7348 8.49998 14 8.49998C14.2652 8.49998 14.5196 8.39463 14.7071 8.20709C14.8946 8.01955 15 7.7652 15 7.49998V4.31998C15.4242 4.56561 15.8199 4.85738 16.18 5.18998C16.7566 5.74988 17.2148 6.4199 17.5274 7.16028C17.84 7.90066 18.0008 8.6963 18 9.49998H17C16.7348 9.49998 16.4804 9.60534 16.2929 9.79288C16.1054 9.98041 16 10.2348 16 10.5C16 10.7652 16.1054 11.0196 16.2929 11.2071C16.4804 11.3946 16.7348 11.5 17 11.5H19C19.2652 11.5 19.5196 11.6053 19.7071 11.7929C19.8946 11.9804 20 12.2348 20 12.5C20 12.7652 19.8946 13.0196 19.7071 13.2071C19.5196 13.3946 19.2652 13.5 19 13.5Z" fill="white"/>
</svg>
