<svg width="10" height="10" viewBox="0 0 10 10" fill="none" xmlns="http://www.w3.org/2000/svg">
<path d="M5.70497 5L8.85497 1.855C8.94912 1.76085 9.00201 1.63315 9.00201 1.5C9.00201 1.36685 8.94912 1.23915 8.85497 1.145C8.76082 1.05085 8.63312 0.997955 8.49997 0.997955C8.36682 0.997955 8.23912 1.05085 8.14497 1.145L4.99997 4.295L1.85497 1.145C1.76082 1.05085 1.63312 0.997955 1.49997 0.997955C1.36682 0.997955 1.23912 1.05085 1.14497 1.145C1.05082 1.23915 0.997924 1.36685 0.997924 1.5C0.997924 1.63315 1.05082 1.76085 1.14497 1.855L4.29497 5L1.14497 8.145C1.09811 8.19148 1.06091 8.24678 1.03552 8.30771C1.01014 8.36864 0.99707 8.434 0.99707 8.5C0.99707 8.56601 1.01014 8.63136 1.03552 8.69229C1.06091 8.75322 1.09811 8.80852 1.14497 8.855C1.19145 8.90186 1.24675 8.93906 1.30768 8.96445C1.36861 8.98983 1.43396 9.0029 1.49997 9.0029C1.56598 9.0029 1.63133 8.98983 1.69226 8.96445C1.75319 8.93906 1.80849 8.90186 1.85497 8.855L4.99997 5.705L8.14497 8.855C8.19145 8.90186 8.24675 8.93906 8.30768 8.96445C8.36861 8.98983 8.43396 9.0029 8.49997 9.0029C8.56597 9.0029 8.63133 8.98983 8.69226 8.96445C8.75319 8.93906 8.80849 8.90186 8.85497 8.855C8.90183 8.80852 8.93903 8.75322 8.96441 8.69229C8.9898 8.63136 9.00287 8.56601 9.00287 8.5C9.00287 8.434 8.9898 8.36864 8.96441 8.30771C8.93903 8.24678 8.90183 8.19148 8.85497 8.145L5.70497 5Z" fill="white"/>
</svg>
