<svg width="20" height="20" viewBox="0 0 20 20" fill="none" xmlns="http://www.w3.org/2000/svg">
<path d="M17 1L11 7L13 9L20 2V1H17ZM10 10.5C9.86739 10.5 9.74021 10.4473 9.64645 10.3536C9.55268 10.2598 9.5 10.1326 9.5 10C9.5 9.86739 9.55268 9.74021 9.64645 9.64645C9.74021 9.55268 9.86739 9.5 10 9.5C10.1326 9.5 10.2598 9.55268 10.3536 9.64645C10.4473 9.74021 10.5 9.86739 10.5 10C10.5 10.1326 10.4473 10.2598 10.3536 10.3536C10.2598 10.4473 10.1326 10.5 10 10.5ZM4 18C3.46957 18 2.96086 17.7893 2.58579 17.4142C2.21071 17.0391 2 16.5304 2 16C2 15.4696 2.21071 14.9609 2.58579 14.5858C2.96086 14.2107 3.46957 14 4 14C4.53043 14 5.03914 14.2107 5.41421 14.5858C5.78929 14.9609 6 15.4696 6 16C6 16.5304 5.78929 17.0391 5.41421 17.4142C5.03914 17.7893 4.53043 18 4 18ZM4 6C3.46957 6 2.96086 5.78929 2.58579 5.41421C2.21071 5.03914 2 4.53043 2 4C2 3.46957 2.21071 2.96086 2.58579 2.58579C2.96086 2.21071 3.46957 2 4 2C4.53043 2 5.03914 2.21071 5.41421 2.58579C5.78929 2.96086 6 3.46957 6 4C6 4.53043 5.78929 5.03914 5.41421 5.41421C5.03914 5.78929 4.53043 6 4 6ZM7.64 5.64C7.87 5.14 8 4.59 8 4C8 2.93913 7.57857 1.92172 6.82843 1.17157C6.07828 0.421427 5.06087 0 4 0C2.93913 0 1.92172 0.421427 1.17157 1.17157C0.421427 1.92172 0 2.93913 0 4C0 5.06087 0.421427 6.07828 1.17157 6.82843C1.92172 7.57857 2.93913 8 4 8C4.59 8 5.14 7.87 5.64 7.64L8 10L5.64 12.36C5.14 12.13 4.59 12 4 12C2.93913 12 1.92172 12.4214 1.17157 13.1716C0.421427 13.9217 0 14.9391 0 16C0 17.0609 0.421427 18.0783 1.17157 18.8284C1.92172 19.5786 2.93913 20 4 20C5.06087 20 6.07828 19.5786 6.82843 18.8284C7.57857 18.0783 8 17.0609 8 16C8 15.41 7.87 14.86 7.64 14.36L10 12L17 19H20V18L7.64 5.64Z" fill="white"/>
</svg>
