<svg width="20" height="20" viewBox="0 0 20 20" fill="none" xmlns="http://www.w3.org/2000/svg">
<path d="M0 2C0 1.46957 0.210714 0.960859 0.585786 0.585786C0.960859 0.210714 1.46957 0 2 0H5V2H2V5H0V2ZM20 2V5H18V2H15V0H18C18.5304 0 19.0391 0.210714 19.4142 0.585786C19.7893 0.960859 20 1.46957 20 2ZM18 18V15H20V18C20 18.5304 19.7893 19.0391 19.4142 19.4142C19.0391 19.7893 18.5304 20 18 20H15V18H18ZM0 18V15H2V18H5V20H2C1.46957 20 0.960859 19.7893 0.585786 19.4142C0.210714 19.0391 0 18.5304 0 18ZM8 0H12V2H8V0ZM8 18H12V20H8V18ZM18 8H20V12H18V8ZM0 8H2V12H0V8Z" fill="white"/>
</svg>
