<svg width="18" height="20" viewBox="0 0 18 20" fill="none" xmlns="http://www.w3.org/2000/svg">
<path d="M8.18182 14.5455H1.81818C1.33597 14.5455 0.873508 14.3539 0.532533 14.0129C0.191558 13.6719 0 13.2095 0 12.7273V1.81818C0 1.33597 0.191558 0.873508 0.532533 0.532533C0.873508 0.191558 1.33597 0 1.81818 0H12.7273V1.81818H1.81818V12.7273H8.18182V10.9091L11.8182 13.6364L8.18182 16.3636V14.5455ZM15.4545 18.1818V5.45455H5.45455V10.9091H3.63636V5.45455C3.63636 4.97233 3.82792 4.50987 4.1689 4.1689C4.50987 3.82792 4.97233 3.63636 5.45455 3.63636H15.4545C15.9368 3.63636 16.3992 3.82792 16.7402 4.1689C17.0812 4.50987 17.2727 4.97233 17.2727 5.45455V18.1818C17.2727 18.664 17.0812 19.1265 16.7402 19.4675C16.3992 19.8084 15.9368 20 15.4545 20H5.45455C4.97233 20 4.50987 19.8084 4.1689 19.4675C3.82792 19.1265 3.63636 18.664 3.63636 18.1818V16.3636H5.45455V18.1818H15.4545Z" fill="white"/>
</svg>
