<svg width="16" height="16" viewBox="0 0 16 16" fill="none" xmlns="http://www.w3.org/2000/svg">
<path d="M12.3261 7.96277C12.2464 7.88243 12.1516 7.81867 12.0472 7.77515C11.9427 7.73164 11.8307 7.70923 11.7175 7.70923C11.6044 7.70923 11.4924 7.73164 11.3879 7.77515C11.2835 7.81867 11.1887 7.88243 11.109 7.96277L8.28903 10.7913V4.2857C8.28903 4.05837 8.19873 3.84036 8.03799 3.67962C7.87725 3.51888 7.65923 3.42857 7.43191 3.42857C7.20458 3.42857 6.98657 3.51888 6.82583 3.67962C6.66509 3.84036 6.57478 4.05837 6.57478 4.2857V10.7913L3.75484 7.96277C3.59344 7.80137 3.37453 7.7107 3.14628 7.7107C2.91802 7.7107 2.69912 7.80137 2.53772 7.96277C2.37632 8.12417 2.28564 8.34307 2.28564 8.57133C2.28564 8.79958 2.37632 9.01849 2.53772 9.17989L6.82335 13.4655C6.90486 13.5436 7.00099 13.6047 7.1062 13.6455C7.2088 13.6909 7.31974 13.7143 7.43191 13.7143C7.54408 13.7143 7.65502 13.6909 7.75762 13.6455C7.86283 13.6047 7.95895 13.5436 8.04047 13.4655L12.3261 9.17989C12.4064 9.10021 12.4702 9.00541 12.5137 8.90096C12.5572 8.79651 12.5796 8.68448 12.5796 8.57133C12.5796 8.45818 12.5572 8.34615 12.5137 8.2417C12.4702 8.13725 12.4064 8.04245 12.3261 7.96277Z" fill="white"/>
</svg>
