<svg width="8" height="8" viewBox="0 0 8 8" fill="none" xmlns="http://www.w3.org/2000/svg">
<path d="M7.99941 2.09585C7.99971 2.04321 7.98962 1.99103 7.96972 1.9423C7.94982 1.89357 7.92049 1.84924 7.88342 1.81187L6.18754 0.115998C6.15017 0.0789282 6.10585 0.0496003 6.05712 0.029696C6.00838 0.00979162 5.9562 -0.000297649 5.90357 6.68522e-06C5.85093 -0.000297649 5.79875 0.00979162 5.75001 0.029696C5.70128 0.0496003 5.65696 0.0789282 5.61959 0.115998L4.48767 1.24791L0.115998 5.61959C0.0789282 5.65696 0.0496003 5.70128 0.029696 5.75001C0.00979162 5.79875 -0.000297649 5.85093 6.68522e-06 5.90357V7.59944C6.68522e-06 7.70552 0.0421463 7.80725 0.117155 7.88226C0.192164 7.95727 0.293898 7.99941 0.399977 7.99941H2.09585C2.15182 8.00245 2.2078 7.9937 2.26017 7.97372C2.31253 7.95374 2.36011 7.92297 2.39983 7.88342L6.7475 3.51174L7.88342 2.39983C7.91992 2.36106 7.94967 2.31645 7.97141 2.26784C7.97526 2.23596 7.97526 2.20373 7.97141 2.17184C7.97328 2.15323 7.97328 2.13447 7.97141 2.11585L7.99941 2.09585ZM1.93186 7.19947H0.799947V6.06755L4.77165 2.09585L5.90357 3.22777L1.93186 7.19947ZM6.46752 2.66381L5.33561 1.53189L5.90357 0.967934L7.03148 2.09585L6.46752 2.66381Z" fill="white"/>
</svg>
