<svg width="20" height="20" viewBox="0 0 20 20" fill="none" xmlns="http://www.w3.org/2000/svg">
<g clip-path="url(#clip0)">
<path d="M6.1 16.7L4.8 18H2V15.2L11.9 5.3L13.7 7C14 7 14.2 7 14.5 7C15.7 7 16.9 7.3 17.9 7.7L19.7 6C19.8 5.9 19.9 5.8 19.9 5.7C19.9 5.6 19.9 5.5 19.9 5.5V5.4L20 5.2C20 5.1 20 4.9 19.9 4.8C19.9 4.7 19.8 4.6 19.7 4.5L15.5 0.3C15.4 0.2 15.3 0.1 15.2 0.1C15 0 14.9 0 14.8 0C14.7 0 14.5 0 14.4 0.1C14.3 0.1 14.2 0.2 14.1 0.3L11.3 3.1L0.3 14C0.2 14.1 0.1 14.2 0.1 14.3C0 14.5 0 14.6 0 14.8V19C0 19.3 0.1 19.5 0.3 19.7C0.5 19.9 0.7 20 1 20H5.2C5.3 20 5.5 20 5.6 19.9C5.7 19.9 5.8 19.8 5.9 19.7L6.7 19C6.4 18.3 6.2 17.5 6.1 16.7ZM14.8 2.4L17.6 5.2L16.2 6.6L13.4 3.8L14.8 2.4Z" fill="white"/>
<path d="M19.9816 13.1661C19.9478 13.0598 19.8851 12.9662 19.8012 12.8967C19.7173 12.8272 19.6159 12.7849 19.5094 12.7749L16.3799 12.3032L14.9853 9.32351C14.9537 9.25543 14.9096 9.19457 14.8554 9.1444C14.8013 9.09423 14.7383 9.05574 14.6699 9.03116C14.6016 9.00657 14.5293 8.99638 14.4571 9.00114C14.385 9.0059 14.3145 9.02553 14.2496 9.05891C14.1401 9.11587 14.0514 9.2088 13.9971 9.32351L12.6025 12.2917L9.47302 12.7749C9.37195 12.7878 9.27645 12.8305 9.1976 12.898C9.11876 12.9655 9.05981 13.055 9.02761 13.1563C8.99541 13.2575 8.99128 13.3662 9.0157 13.4697C9.04012 13.5733 9.09209 13.6675 9.16557 13.7413L11.4386 16.0423L10.8895 19.3096C10.8685 19.4175 10.8781 19.5294 10.9172 19.6317C10.9562 19.7339 11.0229 19.8219 11.1091 19.8848C11.1956 19.9385 11.2942 19.9668 11.3946 19.9668C11.4951 19.9668 11.5937 19.9385 11.6801 19.8848L14.4912 18.3892L17.2913 19.9309C17.3682 19.9766 17.4553 20.0004 17.5438 19.9999C17.6579 20.0024 17.7696 19.966 17.8623 19.8963C17.9475 19.8324 18.0134 19.7443 18.0523 19.6423C18.0912 19.5404 18.1015 19.4289 18.0819 19.3211L17.5329 16.0538L19.8059 13.7528C19.8851 13.6825 19.9437 13.59 19.9748 13.4861C20.0059 13.3823 20.0083 13.2713 19.9816 13.1661ZM16.6105 15.467C16.5452 15.5305 16.4959 15.61 16.4672 15.6984C16.4384 15.7867 16.4311 15.8812 16.4458 15.9732L16.8411 18.3892L14.7767 17.2388C14.6976 17.1934 14.6088 17.1697 14.5187 17.1697C14.4285 17.1697 14.3397 17.1934 14.2606 17.2388L12.1962 18.3892L12.5915 15.9732C12.6049 15.8804 12.5981 15.7856 12.5714 15.6959C12.5448 15.6062 12.4991 15.524 12.4378 15.4555L10.7907 13.7298L13.0967 13.3847C13.1861 13.3711 13.2711 13.3346 13.3439 13.2785C13.4166 13.2223 13.4751 13.1481 13.5139 13.0625L14.4912 10.8767L15.5234 13.074C15.5628 13.1581 15.6217 13.2305 15.6945 13.2847C15.7674 13.3389 15.852 13.3733 15.9407 13.3847L18.2576 13.7413L16.6105 15.467Z" fill="white" stroke="white" stroke-width="0.5"/>
</g>
<defs>
<clipPath id="clip0">
<rect width="20" height="20" fill="white"/>
</clipPath>
</defs>
</svg>
