<svg width="24" height="24" viewBox="0 0 24 24" fill="none" xmlns="http://www.w3.org/2000/svg">
<path d="M22 7.24002C22.0008 7.10841 21.9755 6.97795 21.9258 6.85611C21.876 6.73427 21.8027 6.62346 21.71 6.53002L17.47 2.29002C17.3766 2.19734 17.2657 2.12401 17.1439 2.07425C17.0221 2.02448 16.8916 1.99926 16.76 2.00002C16.6284 1.99926 16.4979 2.02448 16.3761 2.07425C16.2543 2.12401 16.1434 2.19734 16.05 2.29002L13.22 5.12002L2.29 16.05C2.19732 16.1435 2.12399 16.2543 2.07423 16.3761C2.02446 16.4979 1.99924 16.6284 2 16.76V21C2 21.2652 2.10536 21.5196 2.29289 21.7071C2.48043 21.8947 2.73478 22 3 22H7.24C7.37993 22.0076 7.51989 21.9857 7.65082 21.9358C7.78175 21.8858 7.90071 21.8089 8 21.71L18.87 10.78L21.71 8.00002C21.8013 7.9031 21.8756 7.79155 21.93 7.67002C21.9396 7.59031 21.9396 7.50973 21.93 7.43002C21.9347 7.38347 21.9347 7.33657 21.93 7.29002L22 7.24002ZM6.83 20H4V17.17L13.93 7.24002L16.76 10.07L6.83 20ZM18.17 8.66002L15.34 5.83002L16.76 4.42002L19.58 7.24002L18.17 8.66002Z" fill="white"/>
</svg>
