<svg width="20" height="20" viewBox="0 0 20 20" fill="none" xmlns="http://www.w3.org/2000/svg">
<path d="M6.1 16.7L4.8 18H2V15.2L11.9 5.3L13.7 7C14 7 14.2 7 14.5 7C15.7 7 16.9 7.3 17.9 7.7L19.7 6C19.8 5.9 19.9 5.8 19.9 5.7C19.9 5.6 19.9 5.5 19.9 5.5V5.4L20 5.2C20 5.1 20 4.9 19.9 4.8C19.9 4.7 19.8 4.6 19.7 4.5L15.5 0.3C15.4 0.2 15.3 0.1 15.2 0.1C15 0 14.9 0 14.8 0C14.7 0 14.5 0 14.4 0.1C14.3 0.1 14.2 0.2 14.1 0.3L11.3 3.1L0.3 14C0.2 14.1 0.1 14.2 0.1 14.3C0 14.5 0 14.6 0 14.8V19C0 19.3 0.1 19.5 0.3 19.7C0.5 19.9 0.7 20 1 20H5.2C5.3 20 5.5 20 5.6 19.9C5.7 19.9 5.8 19.8 5.9 19.7L6.7 19C6.4 18.3 6.2 17.5 6.1 16.7ZM14.8 2.4L17.6 5.2L16.2 6.6L13.4 3.8L14.8 2.4Z" fill="white"/>
<path d="M16.2295 19V16.73H18.4995C18.6321 16.73 18.7593 16.6773 18.8531 16.5836C18.9468 16.4898 18.9995 16.3626 18.9995 16.23V10C18.9995 9.86739 18.9468 9.74021 18.8531 9.64645C18.7593 9.55268 18.6321 9.5 18.4995 9.5H12.2695C12.1369 9.5 12.0097 9.55268 11.916 9.64645C11.8222 9.74021 11.7695 9.86739 11.7695 10V12.27H9.49951C9.3669 12.27 9.23973 12.3227 9.14596 12.4164C9.05219 12.5102 8.99951 12.6374 8.99951 12.77L8.99951 19C8.99951 19.1326 9.05219 19.2598 9.14596 19.3536C9.23973 19.4473 9.3669 19.5 9.49951 19.5H15.7295C15.8621 19.5 15.9893 19.4473 16.0831 19.3536C16.1768 19.2598 16.2295 19.1326 16.2295 19V19ZM9.99951 18.5L9.99951 13.27H12.2695C12.4021 13.27 12.5293 13.2173 12.6231 13.1236C12.7168 13.0298 12.7695 12.9026 12.7695 12.77V10.5H17.9995V15.73H15.7295C15.5969 15.73 15.4697 15.7827 15.376 15.8764C15.2822 15.9702 15.2295 16.0974 15.2295 16.23V18.5H9.99951Z" fill="white" stroke="white" stroke-width="0.8"/>
</svg>
