<svg width="16" height="16" viewBox="0 0 16 16" fill="none" xmlns="http://www.w3.org/2000/svg">
<path d="M9.17387 7.99929L12.7537 4.42723C12.9105 4.27044 12.9986 4.05779 12.9986 3.83605C12.9986 3.61432 12.9105 3.40167 12.7537 3.24487C12.597 3.08808 12.3843 3 12.1626 3C11.9409 3 11.7283 3.08808 11.5715 3.24487L8 6.82526L4.42845 3.24487C4.27168 3.08808 4.05906 3 3.83736 3C3.61565 3 3.40303 3.08808 3.24626 3.24487C3.08949 3.40167 3.00142 3.61432 3.00142 3.83605C3.00142 4.05779 3.08949 4.27044 3.24626 4.42723L6.82613 7.99929L3.24626 11.5713C3.16823 11.6488 3.10629 11.7408 3.06403 11.8423C3.02176 11.9438 3 12.0526 3 12.1625C3 12.2724 3.02176 12.3813 3.06403 12.4827C3.10629 12.5842 3.16823 12.6763 3.24626 12.7537C3.32365 12.8317 3.41573 12.8937 3.51718 12.936C3.61864 12.9782 3.72745 13 3.83736 13C3.94726 13 4.05608 12.9782 4.15753 12.936C4.25898 12.8937 4.35106 12.8317 4.42845 12.7537L8 9.17332L11.5715 12.7537C11.6489 12.8317 11.741 12.8937 11.8425 12.936C11.9439 12.9782 12.0527 13 12.1626 13C12.2725 13 12.3814 12.9782 12.4828 12.936C12.5843 12.8937 12.6763 12.8317 12.7537 12.7537C12.8318 12.6763 12.8937 12.5842 12.936 12.4827C12.9782 12.3813 13 12.2724 13 12.1625C13 12.0526 12.9782 11.9438 12.936 11.8423C12.8937 11.7408 12.8318 11.6488 12.7537 11.5713L9.17387 7.99929Z" fill="white"/>
</svg>
