<svg width="20" height="20" viewBox="0 0 20 20" fill="none" xmlns="http://www.w3.org/2000/svg">
<path d="M6.1 16.7L4.8 18H2V15.2L11.9 5.3L13.7 7C14 7 14.2 7 14.5 7C15.7 7 16.9 7.3 17.9 7.7L19.7 6C19.8 5.9 19.9 5.8 19.9 5.7C19.9 5.6 19.9 5.5 19.9 5.5V5.4L20 5.2C20 5.1 20 4.9 19.9 4.8C19.9 4.7 19.8 4.6 19.7 4.5L15.5 0.3C15.4 0.2 15.3 0.1 15.2 0.1C15 0 14.9 0 14.8 0C14.7 0 14.5 0 14.4 0.1C14.3 0.1 14.2 0.2 14.1 0.3L11.3 3.1L0.3 14C0.2 14.1 0.1 14.2 0.1 14.3C0 14.5 0 14.6 0 14.8V19C0 19.3 0.1 19.5 0.3 19.7C0.5 19.9 0.7 20 1 20H5.2C5.3 20 5.5 20 5.6 19.9C5.7 19.9 5.8 19.8 5.9 19.7L6.7 19C6.4 18.3 6.2 17.5 6.1 16.7ZM14.8 2.4L17.6 5.2L16.2 6.6L13.4 3.8L14.8 2.4Z" fill="white"/>
<path d="M18.6 10H10.5C10.4 10 10.3 10 10.2 10.1C10 10.2 10 10.3 10 10.5V18.6C10 18.7 10 18.8 10.1 18.9C10.2 19 10.3 19 10.4 19H18.5C18.6 19 18.7 19 18.8 18.9C18.9 18.8 18.9 18.7 18.9 18.6V10.5C18.9 10.4 18.9 10.3 18.8 10.2C18.8 10 18.7 10 18.6 10ZM18.1 18.1H10.9V10.9H18.1V18.1Z" fill="white" stroke="white"/>
</svg>
