<svg width="12" height="20" viewBox="0 0 12 20" fill="none" xmlns="http://www.w3.org/2000/svg">
<path d="M9.29 14.29L7 16.59V3.41002L9.29 5.71002C9.38297 5.80375 9.49357 5.87814 9.61543 5.92891C9.73728 5.97968 9.86799 6.00582 10 6.00582C10.132 6.00582 10.2627 5.97968 10.3846 5.92891C10.5064 5.87814 10.617 5.80375 10.71 5.71002C10.8037 5.61706 10.8781 5.50645 10.9289 5.3846C10.9797 5.26274 11.0058 5.13203 11.0058 5.00002C11.0058 4.86801 10.9797 4.7373 10.9289 4.61544C10.8781 4.49358 10.8037 4.38298 10.71 4.29002L6.71 0.290018C6.6149 0.198978 6.50275 0.127613 6.38 0.0800184C6.13654 -0.0199996 5.86346 -0.0199996 5.62 0.0800184C5.49725 0.127613 5.38511 0.198978 5.29 0.290018L1.29 4.29002C1.19676 4.38326 1.1228 4.49395 1.07234 4.61577C1.02188 4.73759 0.995911 4.86816 0.995911 5.00002C0.995911 5.13188 1.02188 5.26245 1.07234 5.38427C1.1228 5.50609 1.19676 5.61678 1.29 5.71002C1.38324 5.80326 1.49393 5.87722 1.61575 5.92768C1.73758 5.97814 1.86814 6.00411 2 6.00411C2.13186 6.00411 2.26243 5.97814 2.38425 5.92768C2.50607 5.87722 2.61676 5.80326 2.71 5.71002L5 3.41002V16.59L2.71 14.29C2.5217 14.1017 2.2663 13.9959 2 13.9959C1.7337 13.9959 1.47831 14.1017 1.29 14.29C1.1017 14.4783 0.995911 14.7337 0.995911 15C0.995911 15.2663 1.1017 15.5217 1.29 15.71L5.29 19.71C5.38511 19.8011 5.49725 19.8724 5.62 19.92C5.7397 19.9729 5.86913 20.0003 6 20.0003C6.13087 20.0003 6.2603 19.9729 6.38 19.92C6.50275 19.8724 6.6149 19.8011 6.71 19.71L10.71 15.71C10.8983 15.5217 11.0041 15.2663 11.0041 15C11.0041 14.7337 10.8983 14.4783 10.71 14.29C10.6168 14.1968 10.5061 14.1228 10.3843 14.0724C10.2624 14.0219 10.1319 13.9959 10 13.9959C9.7337 13.9959 9.47831 14.1017 9.29 14.29Z" fill="white"/>
</svg>
