<svg width="20" height="11" viewBox="0 0 20 11" fill="none" xmlns="http://www.w3.org/2000/svg">
<path d="M19.915 4.62409C19.8674 4.50134 19.7961 4.3892 19.705 4.29409L15.705 0.294092C15.6118 0.200853 15.5011 0.126893 15.3793 0.0764322C15.2574 0.0259719 15.1269 0 14.995 0C14.7287 0 14.4733 0.105788 14.285 0.294092C14.0967 0.482395 13.9909 0.73779 13.9909 1.00409C13.9909 1.27039 14.0967 1.52579 14.285 1.71409L16.585 4.00409H3.40501L5.70501 1.71409C5.79825 1.62085 5.87221 1.51016 5.92267 1.38834C5.97313 1.26652 5.9991 1.13595 5.9991 1.00409C5.9991 0.872233 5.97313 0.741665 5.92267 0.619843C5.87221 0.498021 5.79825 0.38733 5.70501 0.294092C5.61178 0.200853 5.50108 0.126893 5.37926 0.0764322C5.25744 0.0259719 5.12687 -9.82427e-10 4.99501 0C4.86315 9.82428e-10 4.73259 0.0259719 4.61076 0.0764322C4.48894 0.126893 4.37825 0.200853 4.28501 0.294092L0.285014 4.29409C0.193973 4.3892 0.122608 4.50134 0.0750135 4.62409C-0.0250045 4.86755 -0.0250045 5.14063 0.0750135 5.38409C0.122608 5.50684 0.193973 5.61899 0.285014 5.71409L4.28501 9.71409C4.37798 9.80782 4.48858 9.88221 4.61044 9.93298C4.7323 9.98375 4.863 10.0099 4.99501 10.0099C5.12703 10.0099 5.25773 9.98375 5.37959 9.93298C5.50145 9.88221 5.61205 9.80782 5.70501 9.71409C5.79874 9.62113 5.87314 9.51053 5.9239 9.38867C5.97467 9.26681 6.00081 9.1361 6.00081 9.00409C6.00081 8.87208 5.97467 8.74137 5.9239 8.61951C5.87314 8.49765 5.79874 8.38706 5.70501 8.29409L3.40501 6.00409H16.585L14.285 8.29409C14.1913 8.38706 14.1169 8.49765 14.0661 8.61951C14.0154 8.74137 13.9892 8.87208 13.9892 9.00409C13.9892 9.1361 14.0154 9.26681 14.0661 9.38867C14.1169 9.51053 14.1913 9.62113 14.285 9.71409C14.378 9.80782 14.4886 9.88221 14.6104 9.93298C14.7323 9.98375 14.863 10.0099 14.995 10.0099C15.127 10.0099 15.2577 9.98375 15.3796 9.93298C15.5014 9.88221 15.612 9.80782 15.705 9.71409L19.705 5.71409C19.7961 5.61899 19.8674 5.50684 19.915 5.38409C20.015 5.14063 20.015 4.86755 19.915 4.62409Z" fill="white"/>
</svg>
