<svg width="10" height="8" viewBox="0 0 10 8" fill="none" xmlns="http://www.w3.org/2000/svg">
<path d="M9.67999 3.27556C9.63816 3.224 9.5853 3.18246 9.52531 3.154C9.46532 3.12555 9.39972 3.11089 9.33332 3.11112H8.44443V2.66667C8.44443 2.31305 8.30396 1.97391 8.05391 1.72387C7.80386 1.47382 7.46472 1.33334 7.1111 1.33334H4.31999L4.17777 0.888898C4.08557 0.628111 3.91455 0.402455 3.6884 0.243192C3.46224 0.0839291 3.19215 -0.0010564 2.91555 9.9127e-06H1.33333C0.97971 9.9127e-06 0.640572 0.140486 0.390524 0.390534C0.140476 0.640582 0 0.97972 0 1.33334V6.66667C0 7.02029 0.140476 7.35943 0.390524 7.60948C0.640572 7.85952 0.97971 8 1.33333 8H7.73332C8.03609 7.99912 8.32953 7.89522 8.5654 7.7054C8.80126 7.51557 8.9655 7.25113 9.0311 6.95556L9.77777 3.65334C9.79128 3.58708 9.7895 3.51861 9.77256 3.45314C9.75561 3.38768 9.72395 3.32694 9.67999 3.27556V3.27556ZM1.94222 6.76445C1.91964 6.8647 1.86302 6.95404 1.78198 7.01725C1.70095 7.08045 1.60051 7.11362 1.49778 7.11111H1.33333C1.21546 7.11111 1.10241 7.06429 1.01906 6.98094C0.935713 6.89759 0.888888 6.78454 0.888888 6.66667V1.33334C0.888888 1.21547 0.935713 1.10242 1.01906 1.01907C1.10241 0.935723 1.21546 0.888898 1.33333 0.888898H2.91555C3.01247 0.883839 3.10838 0.910643 3.18863 0.965215C3.26889 1.01979 3.32907 1.09913 3.36 1.19112L3.6 1.92001C3.62852 2.00478 3.68195 2.07898 3.75332 2.1329C3.82468 2.18682 3.91065 2.21795 3.99999 2.22223H7.1111C7.22898 2.22223 7.34202 2.26905 7.42537 2.3524C7.50872 2.43575 7.55555 2.5488 7.55555 2.66667V3.11112H3.11111C3.00837 3.10861 2.90793 3.14178 2.8269 3.20498C2.74587 3.26819 2.68924 3.35752 2.66666 3.45778L1.94222 6.76445ZM8.16443 6.76445C8.14186 6.8647 8.08523 6.95404 8.0042 7.01725C7.92316 7.08045 7.82273 7.11362 7.71999 7.11111H2.76C2.78295 7.06159 2.79938 7.0093 2.80889 6.95556L3.46666 4H8.79999L8.16443 6.76445Z" fill="white"/>
</svg>


