<svg width="10" height="10" viewBox="0 0 10 10" fill="none" xmlns="http://www.w3.org/2000/svg">
<path d="M5 0C4.01109 0 3.0444 0.293245 2.22215 0.842652C1.3999 1.39206 0.759043 2.17295 0.380604 3.08658C0.00216642 4.00021 -0.0968502 5.00554 0.0960758 5.97545C0.289002 6.94535 0.765206 7.83627 1.46447 8.53553C2.16373 9.23479 3.05464 9.711 4.02455 9.90392C4.99445 10.0968 5.99979 9.99783 6.91342 9.6194C7.82705 9.24096 8.60794 8.60009 9.15735 7.77785C9.70675 6.9556 10 5.9889 10 5C9.99854 3.67436 9.47129 2.40344 8.53393 1.46607C7.59656 0.528707 6.32564 0.0014558 5 0V0ZM5 9C4.20888 9 3.43552 8.7654 2.77772 8.32588C2.11992 7.88635 1.60723 7.26164 1.30448 6.53073C1.00173 5.79983 0.92252 4.99556 1.07686 4.21964C1.2312 3.44371 1.61216 2.73098 2.17157 2.17157C2.73098 1.61216 3.44372 1.2312 4.21964 1.07686C4.99556 0.922518 5.79983 1.00173 6.53073 1.30448C7.26164 1.60723 7.88635 2.11992 8.32588 2.77772C8.7654 3.43551 9 4.20887 9 5C8.99868 6.06046 8.57682 7.0771 7.82697 7.82696C7.07711 8.57682 6.06046 8.99867 5 9ZM5 4.75C4.86739 4.75 4.74022 4.80268 4.64645 4.89645C4.55268 4.99021 4.5 5.11739 4.5 5.25V6.75C4.5 6.88261 4.55268 7.00978 4.64645 7.10355C4.74022 7.19732 4.86739 7.25 5 7.25C5.13261 7.25 5.25979 7.19732 5.35355 7.10355C5.44732 7.00978 5.5 6.88261 5.5 6.75V5.25C5.5 5.11739 5.44732 4.99021 5.35355 4.89645C5.25979 4.80268 5.13261 4.75 5 4.75ZM5 2.75C4.87639 2.75 4.75555 2.78665 4.65277 2.85533C4.54999 2.92401 4.46988 3.02162 4.42258 3.13582C4.37527 3.25003 4.36289 3.37569 4.38701 3.49693C4.41113 3.61817 4.47065 3.72953 4.55806 3.81694C4.64547 3.90435 4.75683 3.96387 4.87807 3.98799C4.99931 4.01211 5.12497 3.99973 5.23918 3.95242C5.35338 3.90512 5.45099 3.82501 5.51967 3.72223C5.58835 3.61945 5.625 3.49861 5.625 3.375C5.625 3.20924 5.55915 3.05027 5.44194 2.93306C5.32473 2.81585 5.16576 2.75 5 2.75V2.75Z" fill="white"/>
</svg>
