<svg width="21" height="12" viewBox="0 0 21 12" fill="none" xmlns="http://www.w3.org/2000/svg">
<path d="M6.25 6C6.25 6.31826 6.35975 6.62348 6.5551 6.84853C6.75045 7.07357 7.0154 7.2 7.29167 7.2H13.5417C13.8179 7.2 14.0829 7.07357 14.2782 6.84853C14.4736 6.62348 14.5833 6.31826 14.5833 6C14.5833 5.68174 14.4736 5.37652 14.2782 5.15147C14.0829 4.92643 13.8179 4.8 13.5417 4.8H7.29167C7.0154 4.8 6.75045 4.92643 6.5551 5.15147C6.35975 5.37652 6.25 5.68174 6.25 6ZM8.33333 9.6H5.20833C4.37953 9.6 3.58468 9.22072 2.99863 8.54559C2.41257 7.87045 2.08333 6.95478 2.08333 6C2.08333 5.04522 2.41257 4.12955 2.99863 3.45442C3.58468 2.77928 4.37953 2.4 5.20833 2.4H8.33333C8.6096 2.4 8.87455 2.27357 9.0699 2.04853C9.26525 1.82348 9.375 1.51826 9.375 1.2C9.375 0.88174 9.26525 0.576516 9.0699 0.351472C8.87455 0.126428 8.6096 0 8.33333 0H5.20833C3.827 0 2.50224 0.632141 1.52549 1.75736C0.548734 2.88258 0 4.4087 0 6C0 7.5913 0.548734 9.11742 1.52549 10.2426C2.50224 11.3679 3.827 12 5.20833 12H8.33333C8.6096 12 8.87455 11.8736 9.0699 11.6485C9.26525 11.4235 9.375 11.1183 9.375 10.8C9.375 10.4817 9.26525 10.1765 9.0699 9.95147C8.87455 9.72643 8.6096 9.6 8.33333 9.6ZM15.625 0H12.5C12.2237 0 11.9588 0.126428 11.7634 0.351472C11.5681 0.576516 11.4583 0.88174 11.4583 1.2C11.4583 1.51826 11.5681 1.82348 11.7634 2.04853C11.9588 2.27357 12.2237 2.4 12.5 2.4H15.625C16.4538 2.4 17.2487 2.77928 17.8347 3.45442C18.4208 4.12955 18.75 5.04522 18.75 6C18.75 6.95478 18.4208 7.87045 17.8347 8.54559C17.2487 9.22072 16.4538 9.6 15.625 9.6H12.5C12.2237 9.6 11.9588 9.72643 11.7634 9.95147C11.5681 10.1765 11.4583 10.4817 11.4583 10.8C11.4583 11.1183 11.5681 11.4235 11.7634 11.6485C11.9588 11.8736 12.2237 12 12.5 12H15.625C17.0063 12 18.3311 11.3679 19.3078 10.2426C20.2846 9.11742 20.8333 7.5913 20.8333 6C20.8333 4.4087 20.2846 2.88258 19.3078 1.75736C18.3311 0.632141 17.0063 0 15.625 0Z" fill="white"/>
</svg>
