<svg width="20" height="20" viewBox="0 0 20 20" fill="none" xmlns="http://www.w3.org/2000/svg">
<path d="M16.5791 6.41378C16.3125 6.14876 15.9518 6 15.5759 6C15.2 6 14.8394 6.14876 14.5728 6.41378L9.46443 11.451L4.42724 6.41378C4.16063 6.14876 3.79999 6 3.42407 6C3.04815 6 2.68751 6.14876 2.4209 6.41378C2.28753 6.54606 2.18167 6.70344 2.10943 6.87683C2.03719 7.05023 2 7.23622 2 7.42406C2 7.61191 2.03719 7.79789 2.10943 7.97129C2.18167 8.14469 2.28753 8.30207 2.4209 8.43435L8.45414 14.4676C8.58642 14.601 8.7438 14.7068 8.9172 14.7791C9.0906 14.8513 9.27658 14.8885 9.46443 14.8885C9.65227 14.8885 9.83826 14.8513 10.0117 14.7791C10.1851 14.7068 10.3424 14.601 10.4747 14.4676L16.5791 8.43435C16.7125 8.30207 16.8183 8.14469 16.8906 7.97129C16.9628 7.79789 17 7.61191 17 7.42406C17 7.23622 16.9628 7.05023 16.8906 6.87683C16.8183 6.70344 16.7125 6.54606 16.5791 6.41378Z" fill="white"/>
</svg>
