<svg width="20" height="20" viewBox="0 0 20 20" fill="none" xmlns="http://www.w3.org/2000/svg">
<path d="M12.5 3.5C12.6326 3.36739 12.7071 3.18754 12.7071 3C12.7071 2.81246 12.6326 2.63261 12.5 2.5L10.5 0.5C10.4339 0.435452 10.3557 0.384491 10.27 0.35C10.0971 0.278563 9.90291 0.278564 9.73 0.350001C9.64427 0.384492 9.56613 0.435452 9.5 0.5L7.5 2.5C7.36739 2.63261 7.29289 2.81246 7.29289 3C7.29289 3.18754 7.36739 3.36739 7.5 3.5C7.63261 3.63261 7.81246 3.70711 8 3.70711C8.18754 3.70711 8.36739 3.63261 8.5 3.5L9.295 2.705L9.295 9.295L2.705 9.295L3.5 8.5C3.63261 8.36739 3.70711 8.18754 3.70711 8C3.70711 7.81246 3.63261 7.63261 3.5 7.5C3.36739 7.36739 3.18754 7.29289 3 7.29289C2.81246 7.29289 2.63261 7.36739 2.5 7.5L0.5 9.5C0.435451 9.56613 0.384491 9.64427 0.35 9.73C0.278563 9.90291 0.278563 10.0971 0.35 10.27C0.384491 10.3557 0.435451 10.4339 0.5 10.5L2.5 12.5C2.63261 12.6326 2.81246 12.7071 3 12.7071C3.18754 12.7071 3.36739 12.6326 3.5 12.5C3.63261 12.3674 3.70711 12.1875 3.70711 12C3.70711 11.8125 3.63261 11.6326 3.5 11.5L2.705 10.705L9.295 10.705L9.295 17.295L8.5 16.5C8.36739 16.3674 8.18754 16.2929 8 16.2929C7.81246 16.2929 7.63261 16.3674 7.5 16.5C7.36739 16.6326 7.29289 16.8125 7.29289 17C7.29289 17.1875 7.36739 17.3674 7.5 17.5L9.5 19.5C9.56613 19.5645 9.64427 19.6155 9.73 19.65C9.90291 19.7214 10.0971 19.7214 10.27 19.65C10.3557 19.6155 10.4339 19.5645 10.5 19.5L12.5 17.5C12.6326 17.3674 12.7071 17.1875 12.7071 17C12.7071 16.8125 12.6326 16.6326 12.5 16.5C12.3674 16.3674 12.1875 16.2929 12 16.2929C11.8125 16.2929 11.6326 16.3674 11.5 16.5L10.705 17.295L10.705 10.705L17.295 10.705L16.5 11.5C16.3674 11.6326 16.2929 11.8125 16.2929 12C16.2929 12.1875 16.3674 12.3674 16.5 12.5C16.6326 12.6326 16.8125 12.7071 17 12.7071C17.1875 12.7071 17.3674 12.6326 17.5 12.5L19.5 10.5C19.5645 10.4339 19.6155 10.3557 19.65 10.27C19.7214 10.0971 19.7214 9.90291 19.65 9.73C19.6155 9.64427 19.5645 9.56613 19.5 9.5L17.5 7.5C17.3674 7.36739 17.1875 7.29289 17 7.29289C16.8125 7.29289 16.6326 7.36739 16.5 7.5C16.3674 7.63261 16.2929 7.81246 16.2929 8C16.2929 8.18754 16.3674 8.36739 16.5 8.5L17.295 9.295L10.705 9.295L10.705 2.705L11.5 3.5C11.6326 3.63261 11.8125 3.70711 12 3.70711C12.1875 3.70711 12.3674 3.63261 12.5 3.5Z" fill="white" stroke="white" stroke-width="0.3"/>
</svg>
