<svg width="20" height="20" viewBox="0 0 20 20" fill="none" xmlns="http://www.w3.org/2000/svg">
<path d="M9.43941 9.46852L14.4794 4.42857C14.7445 4.16182 14.8934 3.80098 14.8934 3.42485C14.8934 3.04873 14.7445 2.68788 14.4794 2.42113C14.347 2.28769 14.1895 2.18177 14.016 2.10949C13.8426 2.03721 13.6565 2 13.4685 2C13.2806 2 13.0945 2.03721 12.921 2.10949C12.7475 2.18177 12.59 2.28769 12.4577 2.42113L6.42113 8.45768C6.28769 8.59004 6.18177 8.7475 6.10949 8.92099C6.03721 9.09449 6 9.28057 6 9.46852C6 9.65647 6.03721 9.84256 6.10949 10.016C6.18177 10.1895 6.28769 10.347 6.42113 10.4794L12.4577 16.5871C12.5907 16.719 12.7485 16.8234 12.9219 16.8943C13.0954 16.9651 13.2812 17.0011 13.4685 17C13.6559 17.0011 13.8416 16.9651 14.0151 16.8943C14.1886 16.8234 14.3463 16.719 14.4794 16.5871C14.7445 16.3203 14.8934 15.9595 14.8934 15.5834C14.8934 15.2073 14.7445 14.8464 14.4794 14.5797L9.43941 9.46852Z" fill="white"/>
</svg>
