<svg width="19" height="20" viewBox="0 0 19 20" fill="none" xmlns="http://www.w3.org/2000/svg">
<path d="M2.15789 20L5.31579 20C6.47684 20 7.42105 19.0558 7.42105 17.8947L7.42105 9.47368C7.42105 8.31263 8.36526 7.36842 9.52631 7.36842C10.6874 7.36842 11.6316 8.31263 11.6316 9.47368L11.6316 17.8947C11.6316 19.0558 12.5758 20 13.7368 20H16.8947C18.0558 20 19 19.0558 19 17.8947L19 9.47368C19 4.24947 14.7505 0 9.52631 0C4.3021 0 0.0526305 4.24947 0.0526308 9.47368L0.0526313 17.8947C0.0526313 19.0558 0.996841 20 2.15789 20ZM5.31579 17.8947L2.15789 17.8947L2.15789 14.7368L5.31579 14.7368L5.31579 17.8947ZM16.8947 17.8947H13.7368L13.7368 14.7368L16.8947 14.7368L16.8947 17.8947ZM9.52631 2.10526C13.5884 2.10526 16.8947 5.41158 16.8947 9.47368L16.8947 12.6316L13.7368 12.6316L13.7368 9.47368C13.7368 7.15158 11.8484 5.26316 9.52631 5.26316C7.20421 5.26316 5.31579 7.15158 5.31579 9.47368L5.31579 12.6316L2.15789 12.6316L2.15789 9.47368C2.15789 5.41158 5.46421 2.10526 9.52631 2.10526Z" fill="white"/>
</svg>
