<svg width="20" height="20" viewBox="0 0 20 20" fill="none" xmlns="http://www.w3.org/2000/svg">
<path d="M14.5126 8.48848L8.4473 2.42314C8.31431 2.28906 8.1561 2.18264 7.98178 2.11002C7.80746 2.03739 7.62048 2 7.43164 2C7.24279 2 7.05582 2.03739 6.8815 2.11002C6.70718 2.18264 6.54896 2.28906 6.41598 2.42314C6.14955 2.69116 6 3.05373 6 3.43165C6 3.80956 6.14955 4.17213 6.41598 4.44015L11.48 9.50414L6.41598 14.5681C6.14955 14.8361 6 15.1987 6 15.5766C6 15.9545 6.14955 16.3171 6.41598 16.5851C6.54965 16.7177 6.70817 16.8226 6.88246 16.8938C7.05675 16.965 7.24337 17.0011 7.43164 17C7.6199 17.0011 7.80653 16.965 7.98082 16.8938C8.15511 16.8226 8.31363 16.7177 8.4473 16.5851L14.5126 10.5198C14.6467 10.3868 14.7531 10.2286 14.8258 10.0543C14.8984 9.87995 14.9358 9.69298 14.9358 9.50414C14.9358 9.31529 14.8984 9.12832 14.8258 8.954C14.7531 8.77968 14.6467 8.62146 14.5126 8.48848Z" fill="white"/>
</svg>
