<svg width="20" height="20" viewBox="0 0 20 20" fill="none" xmlns="http://www.w3.org/2000/svg">
<path d="M16.6125 12.4689L10.4941 6.42187C10.3616 6.28819 10.2038 6.18209 10.03 6.10968C9.85623 6.03728 9.66982 6 9.48154 6C9.29327 6 9.10686 6.03728 8.93306 6.10968C8.75927 6.18209 8.60153 6.28819 8.46894 6.42187L2.42187 12.4689C2.28819 12.6015 2.18209 12.7593 2.10968 12.9331C2.03728 13.1069 2 13.2933 2 13.4815C2 13.6698 2.03728 13.8562 2.10968 14.03C2.18209 14.2038 2.28819 14.3616 2.42187 14.4941C2.68908 14.7598 3.05055 14.9089 3.42734 14.9089C3.80412 14.9089 4.16559 14.7598 4.43281 14.4941L9.48154 9.44541L14.5303 14.4941C14.7959 14.7576 15.1545 14.9062 15.5286 14.9077C15.7163 14.9088 15.9024 14.8729 16.0761 14.8019C16.2499 14.7309 16.408 14.6263 16.5412 14.4941C16.6797 14.3663 16.7914 14.2124 16.87 14.0411C16.9486 13.8698 16.9925 13.6847 16.9991 13.4964C17.0057 13.3081 16.975 13.1203 16.9086 12.944C16.8423 12.7676 16.7416 12.6062 16.6125 12.4689Z" fill="white"/>
</svg>
