<svg width="11" height="6" viewBox="0 0 11 6" fill="none" xmlns="http://www.w3.org/2000/svg">
<path d="M9.84133 0.279313C9.66137 0.100415 9.41792 0 9.16416 0C8.91041 0 8.66696 0.100415 8.48699 0.279313L5.03871 3.67957L1.63846 0.279313C1.45849 0.100415 1.21505 0 0.961291 0C0.707534 0 0.464087 0.100415 0.284121 0.279313C0.194093 0.368606 0.122635 0.474841 0.0738707 0.59189C0.0251062 0.708939 0 0.834485 0 0.961285C0 1.08809 0.0251062 1.21363 0.0738707 1.33068C0.122635 1.44773 0.194093 1.55396 0.284121 1.64326L4.35674 5.71588C4.44604 5.80591 4.55227 5.87736 4.66932 5.92613C4.78637 5.97489 4.91191 6 5.03871 6C5.16551 6 5.29106 5.97489 5.40811 5.92613C5.52516 5.87736 5.63139 5.80591 5.72069 5.71588L9.84133 1.64326C9.93136 1.55396 10.0028 1.44773 10.0516 1.33068C10.1003 1.21363 10.1255 1.08809 10.1255 0.961285C10.1255 0.834485 10.1003 0.708939 10.0516 0.59189C10.0028 0.474841 9.93136 0.368606 9.84133 0.279313Z" fill="#AAAAAA"/>
</svg>
