<svg width="17" height="17" viewBox="0 0 17 17" fill="none" xmlns="http://www.w3.org/2000/svg">
<path d="M8.49996 12.6667C9.64579 12.6667 10.5833 13.6042 10.5833 14.75C10.5833 15.8958 9.64579 16.8333 8.49996 16.8333C7.35413 16.8333 6.41663 15.8958 6.41663 14.75C6.41663 13.6042 7.35413 12.6667 8.49996 12.6667ZM8.49996 6.41667C9.64579 6.41667 10.5833 7.35417 10.5833 8.5C10.5833 9.64584 9.64579 10.5833 8.49996 10.5833C7.35413 10.5833 6.41663 9.64584 6.41663 8.5C6.41663 7.35417 7.35413 6.41667 8.49996 6.41667ZM8.49996 0.166672C9.64579 0.166672 10.5833 1.10417 10.5833 2.25001C10.5833 3.39584 9.64579 4.33334 8.49996 4.33334C7.35413 4.33334 6.41663 3.39584 6.41663 2.25001C6.41663 1.10417 7.35413 0.166672 8.49996 0.166672ZM2.24996 12.6667C3.39579 12.6667 4.33329 13.6042 4.33329 14.75C4.33329 15.8958 3.39579 16.8333 2.24996 16.8333C1.10413 16.8333 0.166626 15.8958 0.166626 14.75C0.166626 13.6042 1.10413 12.6667 2.24996 12.6667ZM2.24996 6.41667C3.39579 6.41667 4.33329 7.35417 4.33329 8.5C4.33329 9.64584 3.39579 10.5833 2.24996 10.5833C1.10413 10.5833 0.166626 9.64584 0.166626 8.5C0.166626 7.35417 1.10413 6.41667 2.24996 6.41667ZM2.24996 0.166672C3.39579 0.166672 4.33329 1.10417 4.33329 2.25001C4.33329 3.39584 3.39579 4.33334 2.24996 4.33334C1.10413 4.33334 0.166626 3.39584 0.166626 2.25001C0.166626 1.10417 1.10413 0.166672 2.24996 0.166672ZM14.75 12.6667C15.8958 12.6667 16.8333 13.6042 16.8333 14.75C16.8333 15.8958 15.8958 16.8333 14.75 16.8333C13.6041 16.8333 12.6666 15.8958 12.6666 14.75C12.6666 13.6042 13.6041 12.6667 14.75 12.6667ZM14.75 6.41667C15.8958 6.41667 16.8333 7.35417 16.8333 8.5C16.8333 9.64584 15.8958 10.5833 14.75 10.5833C13.6041 10.5833 12.6666 9.64584 12.6666 8.5C12.6666 7.35417 13.6041 6.41667 14.75 6.41667ZM14.75 0.166672C15.8958 0.166672 16.8333 1.10417 16.8333 2.25001C16.8333 3.39584 15.8958 4.33334 14.75 4.33334C13.6041 4.33334 12.6666 3.39584 12.6666 2.25001C12.6666 1.10417 13.6041 0.166672 14.75 0.166672Z" fill="white"/>
</svg>
