<svg width="10" height="10" viewBox="0 0 10 10" fill="none" xmlns="http://www.w3.org/2000/svg">
<path d="M9.5 4.5H8.965C8.8534 3.61999 8.45245 2.80204 7.82521 2.17479C7.19796 1.54755 6.38001 1.1466 5.5 1.035V0.5C5.5 0.367392 5.44732 0.240215 5.35355 0.146447C5.25979 0.0526784 5.13261 0 5 0C4.86739 0 4.74021 0.0526784 4.64645 0.146447C4.55268 0.240215 4.5 0.367392 4.5 0.5V1.035C3.61999 1.1466 2.80204 1.54755 2.17479 2.17479C1.54755 2.80204 1.1466 3.61999 1.035 4.5H0.5C0.367392 4.5 0.240215 4.55268 0.146447 4.64645C0.0526784 4.74021 0 4.86739 0 5C0 5.13261 0.0526784 5.25979 0.146447 5.35355C0.240215 5.44732 0.367392 5.5 0.5 5.5H1.035C1.1466 6.38001 1.54755 7.19796 2.17479 7.82521C2.80204 8.45245 3.61999 8.8534 4.5 8.965V9.5C4.5 9.63261 4.55268 9.75979 4.64645 9.85355C4.74021 9.94732 4.86739 10 5 10C5.13261 10 5.25979 9.94732 5.35355 9.85355C5.44732 9.75979 5.5 9.63261 5.5 9.5V8.965C6.38001 8.8534 7.19796 8.45245 7.82521 7.82521C8.45245 7.19796 8.8534 6.38001 8.965 5.5H9.5C9.63261 5.5 9.75979 5.44732 9.85355 5.35355C9.94732 5.25979 10 5.13261 10 5C10 4.86739 9.94732 4.74021 9.85355 4.64645C9.75979 4.55268 9.63261 4.5 9.5 4.5ZM7.5 5.5H7.955C7.85079 6.11322 7.55855 6.67889 7.11872 7.11872C6.67889 7.55855 6.11322 7.85079 5.5 7.955V7.5C5.5 7.36739 5.44732 7.24021 5.35355 7.14645C5.25979 7.05268 5.13261 7 5 7C4.86739 7 4.74021 7.05268 4.64645 7.14645C4.55268 7.24021 4.5 7.36739 4.5 7.5V7.955C3.88678 7.85079 3.32111 7.55855 2.88128 7.11872C2.44145 6.67889 2.14921 6.11322 2.045 5.5H2.5C2.63261 5.5 2.75979 5.44732 2.85355 5.35355C2.94732 5.25979 3 5.13261 3 5C3 4.86739 2.94732 4.74021 2.85355 4.64645C2.75979 4.55268 2.63261 4.5 2.5 4.5H2.045C2.14921 3.88678 2.44145 3.32111 2.88128 2.88128C3.32111 2.44145 3.88678 2.14921 4.5 2.045V2.5C4.5 2.63261 4.55268 2.75979 4.64645 2.85355C4.74021 2.94732 4.86739 3 5 3C5.13261 3 5.25979 2.94732 5.35355 2.85355C5.44732 2.75979 5.5 2.63261 5.5 2.5V2.045C6.11322 2.14921 6.67889 2.44145 7.11872 2.88128C7.55855 3.32111 7.85079 3.88678 7.955 4.5H7.5C7.36739 4.5 7.24021 4.55268 7.14645 4.64645C7.05268 4.74021 7 4.86739 7 5C7 5.13261 7.05268 5.25979 7.14645 5.35355C7.24021 5.44732 7.36739 5.5 7.5 5.5ZM5 4.5C4.90111 4.5 4.80444 4.52932 4.72221 4.58427C4.63999 4.63921 4.5759 4.7173 4.53806 4.80866C4.50022 4.90002 4.49031 5.00055 4.50961 5.09755C4.5289 5.19454 4.57652 5.28363 4.64645 5.35355C4.71637 5.42348 4.80546 5.4711 4.90245 5.49039C4.99945 5.50969 5.09998 5.49978 5.19134 5.46194C5.2827 5.4241 5.36079 5.36001 5.41573 5.27779C5.47068 5.19556 5.5 5.09889 5.5 5C5.5 4.86739 5.44732 4.74021 5.35355 4.64645C5.25979 4.55268 5.13261 4.5 5 4.5Z" fill="white"/>
</svg>