<svg width="19" height="19" viewBox="0 0 19 19" fill="none" xmlns="http://www.w3.org/2000/svg">
<path d="M16.3125 6.375L6.24999 0.604168C5.7055 0.289751 5.08749 0.125041 4.45874 0.126768C3.82998 0.128495 3.21289 0.296597 2.67013 0.614001C2.12737 0.931404 1.67828 1.3868 1.36848 1.93394C1.05868 2.48107 0.8992 3.10045 0.906245 3.72917V15.3125C0.906245 16.2573 1.28158 17.1635 1.94968 17.8316C2.61777 18.4997 3.52391 18.875 4.46874 18.875C5.0942 18.8739 5.70842 18.7087 6.24999 18.3958L16.3125 12.625C16.8532 12.3121 17.3021 11.8625 17.6141 11.3213C17.9262 10.7801 18.0905 10.1664 18.0905 9.54167C18.0905 8.91696 17.9262 8.30323 17.6141 7.76205C17.3021 7.22087 16.8532 6.77126 16.3125 6.45833V6.375ZM15.2708 10.7396L5.20833 16.5938C4.98279 16.7216 4.72798 16.7888 4.46874 16.7888C4.20951 16.7888 3.9547 16.7216 3.72916 16.5938C3.50426 16.4639 3.31751 16.2771 3.18769 16.0522C3.05786 15.8273 2.98953 15.5722 2.98958 15.3125V3.6875C2.98953 3.42781 3.05786 3.17268 3.18769 2.94777C3.31751 2.72286 3.50426 2.5361 3.72916 2.40625C3.95563 2.28037 4.20968 2.21239 4.46874 2.20833C4.72763 2.21365 4.98139 2.28155 5.20833 2.40625L15.2708 8.21875C15.4958 8.34854 15.6826 8.53528 15.8126 8.7602C15.9425 8.98511 16.0109 9.24027 16.0109 9.5C16.0109 9.75974 15.9425 10.0149 15.8126 10.2398C15.6826 10.4647 15.4958 10.6515 15.2708 10.7813V10.7396Z" fill="white"/>
</svg>
