<svg width="20" height="20" viewBox="0 0 20 20" fill="none" xmlns="http://www.w3.org/2000/svg">
<path d="M0.999989 9.00145C1.26521 9.00145 1.51956 9.10681 1.7071 9.29435C1.89463 9.48188 1.99999 9.73624 1.99999 10.0015C1.98808 11.8745 2.6297 13.693 3.81433 15.1439C4.99896 16.5948 6.65245 17.5871 8.49002 17.9501C10.3276 18.313 12.2342 18.0238 13.8815 17.1322C15.5287 16.2407 16.8136 14.8026 17.5146 13.0657C18.2157 11.3288 18.2892 9.40177 17.7224 7.61653C17.1555 5.83129 15.9839 4.29959 14.4093 3.28524C12.8346 2.27089 10.9556 1.83737 9.09572 2.05937C7.23586 2.28137 5.51162 3.14498 4.21999 4.50146H6.61998C6.8852 4.50146 7.13955 4.60682 7.32709 4.79435C7.51462 4.98189 7.61998 5.23624 7.61998 5.50146C7.61998 5.76667 7.51462 6.02103 7.32709 6.20856C7.13955 6.3961 6.8852 6.50146 6.61998 6.50146H2.08999C1.82477 6.50146 1.57042 6.3961 1.38288 6.20856C1.19534 6.02103 1.08999 5.76667 1.08999 5.50146V1.00146C1.08999 0.736247 1.19534 0.481893 1.38288 0.294357C1.57042 0.106821 1.82477 0.00146454 2.08999 0.00146454C2.3552 0.00146454 2.60956 0.106821 2.79709 0.294357C2.98463 0.481893 3.08999 0.736247 3.08999 1.00146V2.77146C4.75531 1.17952 6.91924 0.211417 9.21596 0.0307936C11.5127 -0.14983 13.8013 0.468109 15.6951 1.78015C17.5888 3.0922 18.9714 5.01786 19.6091 7.23165C20.2469 9.44543 20.1008 11.8115 19.1954 13.93C18.29 16.0484 16.6809 17.7893 14.6401 18.8583C12.5993 19.9273 10.252 20.2588 7.99494 19.7969C5.73791 19.335 3.70959 18.1079 2.25286 16.3231C0.79612 14.5383 0.000326157 12.3053 -9.53674e-06 10.0015C-9.53674e-06 9.73624 0.105347 9.48188 0.292883 9.29435C0.480419 9.10681 0.734774 9.00145 0.999989 9.00145Z" fill="white"/>
</svg>
