<svg width="20" height="20" viewBox="0 0 20 20" fill="none" xmlns="http://www.w3.org/2000/svg">
<path d="M19 9.00145C18.7348 9.00145 18.4804 9.10681 18.2929 9.29435C18.1053 9.48188 18 9.73624 18 10.0015C18.0119 11.8745 17.3703 13.693 16.1856 15.1439C15.001 16.5948 13.3475 17.5871 11.5099 17.9501C9.67238 18.313 7.76577 18.0238 6.1185 17.1322C4.47122 16.2407 3.1864 14.8026 2.48532 13.0657C1.78424 11.3288 1.71079 9.40177 2.27762 7.61653C2.84445 5.83129 4.01607 4.29959 5.5907 3.28524C7.16533 2.27089 9.04439 1.83737 10.9042 2.05937C12.7641 2.28137 14.4883 3.14498 15.78 4.50146H13.38C13.1148 4.50146 12.8604 4.60682 12.6729 4.79435C12.4853 4.98189 12.38 5.23624 12.38 5.50146C12.38 5.76667 12.4853 6.02103 12.6729 6.20856C12.8604 6.3961 13.1148 6.50146 13.38 6.50146H17.91C18.1752 6.50146 18.4296 6.3961 18.6171 6.20856C18.8046 6.02103 18.91 5.76667 18.91 5.50146V1.00146C18.91 0.736247 18.8046 0.481893 18.6171 0.294357C18.4296 0.106821 18.1752 0.00146454 17.91 0.00146454C17.6448 0.00146454 17.3904 0.106821 17.2029 0.294357C17.0153 0.481893 16.91 0.736247 16.91 1.00146V2.77146C15.2447 1.17952 13.0807 0.211417 10.784 0.0307936C8.48728 -0.14983 6.19862 0.468109 4.30492 1.78015C2.41121 3.0922 1.02861 5.01786 0.390831 7.23165C-0.246949 9.44543 -0.100787 11.8115 0.80461 13.93C1.71001 16.0484 3.3191 17.7893 5.35989 18.8583C7.40069 19.9273 9.74799 20.2588 12.005 19.7969C14.2621 19.335 16.2904 18.1079 17.7471 16.3231C19.2038 14.5383 19.9996 12.3053 20 10.0015C20 9.73624 19.8946 9.48188 19.7071 9.29435C19.5196 9.10681 19.2652 9.00145 19 9.00145Z" fill="white"/>
</svg>
