<svg width="21" height="21" viewBox="0 0 21 21" fill="none" xmlns="http://www.w3.org/2000/svg">
<path d="M20.2083 7.94792L18.2396 7.29167L19.1667 5.4375C19.2606 5.24342 19.2921 5.02496 19.2566 4.81226C19.2212 4.59956 19.1206 4.4031 18.9688 4.25L16.75 2.03125C16.5961 1.87717 16.3977 1.77521 16.1829 1.73971C15.968 1.70421 15.7474 1.73695 15.5521 1.83333L13.6979 2.76042L13.0417 0.791665C12.9724 0.586449 12.8408 0.407942 12.6653 0.280986C12.4898 0.15403 12.2791 0.0849404 12.0625 0.0833317H8.9375C8.71912 0.082768 8.50609 0.150851 8.32851 0.277959C8.15094 0.405066 8.0178 0.584768 7.94792 0.791665L7.29167 2.76042L5.4375 1.83333C5.24342 1.73935 5.02496 1.70792 4.81226 1.74337C4.59956 1.77882 4.40311 1.8794 4.25 2.03125L2.03125 4.25C1.87717 4.40392 1.77522 4.60226 1.73971 4.81714C1.70421 5.03201 1.73695 5.25261 1.83333 5.44792L2.76042 7.30208L0.791667 7.95833C0.586451 8.02764 0.407944 8.15919 0.280988 8.33469C0.154032 8.51019 0.0849423 8.7209 0.0833336 8.9375V12.0625C0.0827699 12.2809 0.150853 12.4939 0.277961 12.6715C0.405068 12.8491 0.58477 12.9822 0.791667 13.0521L2.76042 13.7083L1.83333 15.5625C1.73935 15.7566 1.70792 15.975 1.74337 16.1877C1.77882 16.4004 1.87941 16.5969 2.03125 16.75L4.25 18.9687C4.40392 19.1228 4.60227 19.2248 4.81714 19.2603C5.03202 19.2958 5.25261 19.263 5.44792 19.1667L7.30208 18.2396L7.95833 20.2083C8.02821 20.4152 8.16135 20.5949 8.33893 20.722C8.5165 20.8491 8.72954 20.9172 8.94792 20.9167H12.0729C12.2913 20.9172 12.5043 20.8491 12.6819 20.722C12.8595 20.5949 12.9926 20.4152 13.0625 20.2083L13.7187 18.2396L15.5729 19.1667C15.7658 19.2583 15.9821 19.2884 16.1926 19.253C16.4032 19.2176 16.5977 19.1184 16.75 18.9687L18.9688 16.75C19.1228 16.5961 19.2248 16.3977 19.2603 16.1829C19.2958 15.968 19.263 15.7474 19.1667 15.5521L18.2396 13.6979L20.2083 13.0417C20.4135 12.9724 20.5921 12.8408 20.719 12.6653C20.846 12.4898 20.9151 12.2791 20.9167 12.0625V8.9375C20.9172 8.71912 20.8491 8.50609 20.722 8.32851C20.5949 8.15093 20.4152 8.0178 20.2083 7.94792ZM18.8333 11.3125L17.5833 11.7292C17.2959 11.8224 17.0322 11.9771 16.8105 12.1824C16.5888 12.3877 16.4144 12.6388 16.2994 12.9183C16.1845 13.1978 16.1317 13.4989 16.1447 13.8008C16.1578 14.1027 16.2364 14.3982 16.375 14.6667L16.9688 15.8542L15.8229 17L14.6667 16.375C14.3995 16.2419 14.1069 16.1678 13.8087 16.1576C13.5104 16.1474 13.2134 16.2015 12.9378 16.316C12.6623 16.4306 12.4145 16.6031 12.2114 16.8217C12.0082 17.0403 11.8544 17.3001 11.7604 17.5833L11.3438 18.8333H9.6875L9.27083 17.5833C9.1776 17.2959 9.02294 17.0322 8.8176 16.8105C8.61226 16.5888 8.36115 16.4144 8.08169 16.2994C7.80222 16.1845 7.5011 16.1317 7.19919 16.1447C6.89729 16.1578 6.60184 16.2364 6.33333 16.375L5.14583 16.9687L4 15.8229L4.625 14.6667C4.76364 14.3982 4.84221 14.1027 4.85526 13.8008C4.8683 13.4989 4.81552 13.1978 4.70056 12.9183C4.5856 12.6388 4.41123 12.3877 4.18953 12.1824C3.96783 11.9771 3.70411 11.8224 3.41667 11.7292L2.16667 11.3125V9.6875L3.41667 9.27083C3.70411 9.17759 3.96783 9.02294 4.18953 8.8176C4.41123 8.61226 4.5856 8.36115 4.70056 8.08169C4.81552 7.80222 4.8683 7.50109 4.85526 7.19919C4.84221 6.89729 4.76364 6.60184 4.625 6.33333L4.03125 5.17708L5.17708 4.03125L6.33333 4.625C6.60184 4.76364 6.89729 4.84221 7.19919 4.85525C7.5011 4.8683 7.80222 4.81552 8.08169 4.70056C8.36115 4.5856 8.61226 4.41123 8.8176 4.18952C9.02294 3.96782 9.1776 3.70411 9.27083 3.41666L9.6875 2.16667H11.3125L11.7292 3.41666C11.8224 3.70411 11.9771 3.96782 12.1824 4.18952C12.3877 4.41123 12.6388 4.5856 12.9183 4.70056C13.1978 4.81552 13.4989 4.8683 13.8008 4.85525C14.1027 4.84221 14.3982 4.76364 14.6667 4.625L15.8542 4.03125L17 5.17708L16.375 6.33333C16.2419 6.60046 16.1678 6.89307 16.1576 7.19134C16.1474 7.48961 16.2015 7.78659 16.316 8.06217C16.4306 8.33774 16.6031 8.58549 16.8217 8.78862C17.0403 8.99176 17.3001 9.14555 17.5833 9.23958L18.8333 9.65625V11.3125ZM10.5 6.33333C9.67591 6.33333 8.87033 6.5777 8.18512 7.03554C7.49992 7.49338 6.96587 8.14412 6.6505 8.90548C6.33514 9.66684 6.25262 10.5046 6.41339 11.3129C6.57417 12.1211 6.971 12.8636 7.55372 13.4463C8.13644 14.029 8.87887 14.4258 9.68712 14.5866C10.4954 14.7474 11.3332 14.6649 12.0945 14.3495C12.8559 14.0341 13.5066 13.5001 13.9645 12.8149C14.4223 12.1297 14.6667 11.3241 14.6667 10.5C14.6667 9.39493 14.2277 8.33512 13.4463 7.55372C12.6649 6.77232 11.6051 6.33333 10.5 6.33333ZM10.5 12.5833C10.088 12.5833 9.68516 12.4611 9.34256 12.2322C8.99996 12.0033 8.73293 11.6779 8.57525 11.2973C8.41757 10.9166 8.37631 10.4977 8.4567 10.0936C8.53708 9.68943 8.7355 9.31822 9.02686 9.02686C9.31822 8.7355 9.68943 8.53708 10.0936 8.45669C10.4977 8.37631 10.9166 8.41757 11.2973 8.57525C11.6779 8.73293 12.0033 8.99996 12.2322 9.34256C12.4611 9.68516 12.5833 10.088 12.5833 10.5C12.5833 11.0525 12.3638 11.5824 11.9731 11.9731C11.5824 12.3638 11.0525 12.5833 10.5 12.5833Z" fill="white"/>
</svg>
