<svg width="16" height="16" viewBox="0 0 16 16" fill="none" xmlns="http://www.w3.org/2000/svg">
<path d="M13.8067 6.19333L9.80667 2.19333C9.74523 2.13337 9.6728 2.08583 9.59333 2.05333C9.51068 2.01974 9.42254 2.00167 9.33333 2H4C3.46957 2 2.96086 2.21071 2.58579 2.58579C2.21071 2.96086 2 3.46957 2 4V12C2 12.5304 2.21071 13.0391 2.58579 13.4142C2.96086 13.7893 3.46957 14 4 14H12C12.5304 14 13.0391 13.7893 13.4142 13.4142C13.7893 13.0391 14 12.5304 14 12V6.66667C14.0005 6.57893 13.9837 6.49195 13.9505 6.41073C13.9173 6.3295 13.8685 6.25563 13.8067 6.19333ZM6 3.33333H8.66667V4.66667H6V3.33333ZM10 12.6667H6V10.6667C6 10.4899 6.07024 10.3203 6.19526 10.1953C6.32029 10.0702 6.48986 10 6.66667 10H9.33333C9.51014 10 9.67971 10.0702 9.80474 10.1953C9.92976 10.3203 10 10.4899 10 10.6667V12.6667ZM12.6667 12C12.6667 12.1768 12.5964 12.3464 12.4714 12.4714C12.3464 12.5964 12.1768 12.6667 12 12.6667H11.3333V10.6667C11.3333 10.1362 11.1226 9.62753 10.7475 9.25245C10.3725 8.87738 9.86377 8.66667 9.33333 8.66667H6.66667C6.13623 8.66667 5.62753 8.87738 5.25245 9.25245C4.87738 9.62753 4.66667 10.1362 4.66667 10.6667V12.6667H4C3.82319 12.6667 3.65362 12.5964 3.5286 12.4714C3.40357 12.3464 3.33333 12.1768 3.33333 12V4C3.33333 3.82319 3.40357 3.65362 3.5286 3.5286C3.65362 3.40357 3.82319 3.33333 4 3.33333H4.66667V5.33333C4.66667 5.51014 4.7369 5.67971 4.86193 5.80474C4.98695 5.92976 5.15652 6 5.33333 6H9.33333C9.51014 6 9.67971 5.92976 9.80474 5.80474C9.92976 5.67971 10 5.51014 10 5.33333V4.27333L12.6667 6.94V12Z" fill="white"/>
<rect x="6" y="6" width="9" height="9" rx="4.5" fill="#171717"/>
<path d="M8 11H14" stroke="white" stroke-width="1.5" stroke-linecap="round"/>
<path d="M11 8V14" stroke="white" stroke-width="1.5" stroke-linecap="round"/>
</svg>
