<svg width="9" height="5" viewBox="0 0 9 5" fill="none" xmlns="http://www.w3.org/2000/svg">
<path d="M0.11194 2.79851L2.23881 4.88806C2.38806 5.03731 2.61194 5.03731 2.76119 4.88806C2.91045 4.73881 2.91045 4.51493 2.76119 4.36567L0.932836 2.5L2.76119 0.634328C2.91045 0.485075 2.91045 0.261194 2.76119 0.11194C2.68657 0.0373133 2.61194 0 2.5 0C2.38806 0 2.31343 0.0373133 2.23881 0.11194L0.11194 2.20149C-0.0373134 2.38806 -0.0373134 2.61194 0.11194 2.79851C0.11194 2.76119 0.11194 2.76119 0.11194 2.79851Z" fill="white"/>
<path d="M8.6344 2.79851L6.50753 4.88806C6.35828 5.03731 6.1344 5.03731 5.98514 4.88806C5.83589 4.73881 5.83589 4.51493 5.98514 4.36567L7.8135 2.5L5.98514 0.634328C5.83589 0.485075 5.83589 0.261194 5.98514 0.11194C6.05977 0.0373133 6.1344 0 6.24634 0C6.35828 0 6.43291 0.0373133 6.50753 0.11194L8.6344 2.20149C8.78365 2.38806 8.78365 2.61194 8.6344 2.79851C8.6344 2.76119 8.6344 2.76119 8.6344 2.79851Z" fill="white"/>
</svg>
