<svg width="16" height="16" viewBox="0 0 16 16" fill="none" xmlns="http://www.w3.org/2000/svg">
<path d="M6.6 12.7H6V10.7C6 10.7 6 10.7 6 10.6V10.5C6 9.9 6.1 9.2 6.4 8.7C6 8.8 5.6 8.9 5.3 9.3C4.9 9.7 4.7 10.2 4.7 10.7V12.7H4C3.8 12.7 3.7 12.6 3.5 12.5C3.4 12.4 3.3 12.2 3.3 12V4C3.3 3.8 3.4 3.7 3.5 3.5C3.7 3.4 3.8 3.3 4 3.3H4.7V5.3C4.7 5.5 4.8 5.6 4.9 5.8C5 5.9 5.2 6 5.3 6H9.3C9.5 6 9.6 5.9 9.8 5.8C9.9 5.7 10 5.5 10 5.3V4.3L12 6.3C12.8 6.6 13.5 7.1 14 7.7V6.7C14 6.6 14 6.5 14 6.4C14 6.3 13.9 6.2 13.9 6.2L9.9 2.2C9.7 2.1 9.7 2.1 9.6 2.1C9.5 2 9.4 2 9.3 2H4C3.5 2 3 2.2 2.6 2.6C2.2 3 2 3.5 2 4V12C2 12.5 2.2 13 2.6 13.4C3 13.8 3.5 14 4 14H7.7C7.2 13.6 6.9 13.2 6.6 12.7ZM6 3.3H8.7V4.6H6V3.3Z" fill="white"/>
<path d="M8 11H14" stroke="white" stroke-width="1.5" stroke-linecap="round"/>
<path d="M11 8V14" stroke="white" stroke-width="1.5" stroke-linecap="round"/>
</svg>
