<svg width="20" height="20" viewBox="0 0 20 20" fill="none" xmlns="http://www.w3.org/2000/svg">
<path d="M19.92 0.62C19.8185 0.375651 19.6243 0.181475 19.38 0.0799999C19.2598 0.028759 19.1307 0.00157999 19 0H13C12.7348 0 12.4804 0.105357 12.2929 0.292893C12.1054 0.48043 12 0.734784 12 1C12 1.26522 12.1054 1.51957 12.2929 1.70711C12.4804 1.89464 12.7348 2 13 2H16.59L2 16.59V13C2 12.7348 1.89464 12.4804 1.70711 12.2929C1.51957 12.1054 1.26522 12 1 12C0.734784 12 0.48043 12.1054 0.292893 12.2929C0.105357 12.4804 0 12.7348 0 13V19C0.00157999 19.1307 0.028759 19.2598 0.0799999 19.38C0.181475 19.6243 0.375651 19.8185 0.62 19.92C0.740222 19.9712 0.869323 19.9984 1 20H7C7.26522 20 7.51957 19.8946 7.70711 19.7071C7.89464 19.5196 8 19.2652 8 19C8 18.7348 7.89464 18.4804 7.70711 18.2929C7.51957 18.1054 7.26522 18 7 18H3.41L18 3.41V7C18 7.26522 18.1054 7.51957 18.2929 7.70711C18.4804 7.89464 18.7348 8 19 8C19.2652 8 19.5196 7.89464 19.7071 7.70711C19.8946 7.51957 20 7.26522 20 7V1C19.9984 0.869323 19.9712 0.740222 19.92 0.62Z" fill="white"/>
</svg>
