<svg width="21" height="17" viewBox="0 0 21 17" fill="none" xmlns="http://www.w3.org/2000/svg">
<g clip-path="url(#clip0)">
<path d="M13.6 4.7H15.7C16.5 4.7 17.3 5.1 17.9 5.8C18.5 6.5 18.8 7.4 18.8 8.3C18.8 9.2 18.5 10.1 17.9 10.8L19.1 12.4C19.2 12.5 19.2 12.6 19.2 12.6L19.3 12.5C20.3 11.4 20.8 9.8 20.8 8.3C20.8 6.8 20.3 5.1 19.3 4C18.3 2.9 17 2.2 15.6 2.2H12.5C12.3 2.2 12.1 2.3 12 2.4L13.6 4.7Z" fill="white"/>
<path d="M6.4 11.9H5.2C4.4 11.9 3.6 11.5 3 10.8C2.4 10.1 2.1 9.2 2.1 8.3C2.1 7.6 2.3 7 2.6 6.5L1.2 4.5C0.4 5.6 0 6.9 0 8.3C0 9.9 0.5 11.4 1.5 12.5C2.5 13.6 3.8 14.3 5.2 14.3H8.1L6.4 11.9Z" fill="white"/>
<path d="M6.00001 0.500002C5.60001 2.20537e-06 4.80001 -0.199998 4.30001 0.200002C3.70001 0.600002 3.60001 1.4 4.00001 2L6.00001 0.500002ZM14 16C14.4 16.6 15.2 16.7 15.7 16.3C16.3 15.9 16.4 15.1 16 14.6L14 16ZM4.00001 2L14 16L16 14.5L6.00001 0.500002L4.00001 2Z" fill="white"/>
</g>
<defs>
<clipPath id="clip0">
<rect width="21" height="16.5" fill="white"/>
</clipPath>
</defs>
</svg>
