<svg width="21" height="21" viewBox="0 0 21 21" fill="none" xmlns="http://www.w3.org/2000/svg">
<path d="M13.625 8.41666H10.5V5.29166C10.5 5.0154 10.3903 4.75044 10.1949 4.55509C9.99955 4.35974 9.7346 4.25 9.45833 4.25C9.18207 4.25 8.91712 4.35974 8.72176 4.55509C8.52641 4.75044 8.41667 5.0154 8.41667 5.29166V8.41666H5.29167C5.0154 8.41666 4.75045 8.52641 4.5551 8.72176C4.35975 8.91711 4.25 9.18206 4.25 9.45833C4.25 9.7346 4.35975 9.99955 4.5551 10.1949C4.75045 10.3903 5.0154 10.5 5.29167 10.5H8.41667V13.625C8.41667 13.9013 8.52641 14.1662 8.72176 14.3616C8.91712 14.5569 9.18207 14.6667 9.45833 14.6667C9.7346 14.6667 9.99955 14.5569 10.1949 14.3616C10.3903 14.1662 10.5 13.9013 10.5 13.625V10.5H13.625C13.9013 10.5 14.1662 10.3903 14.3616 10.1949C14.5569 9.99955 14.6667 9.7346 14.6667 9.45833C14.6667 9.18206 14.5569 8.91711 14.3616 8.72176C14.1662 8.52641 13.9013 8.41666 13.625 8.41666ZM20.6146 19.1354L16.75 15.3021C18.2501 13.4317 18.9766 11.0576 18.78 8.66802C18.5835 6.27844 17.4788 4.05498 15.6933 2.45483C13.9077 0.85469 11.5769 -0.000514574 9.18013 0.0650692C6.78337 0.130653 4.50284 1.11204 2.80744 2.80744C1.11204 4.50283 0.130657 6.78337 0.065073 9.18012C-0.00051076 11.5769 0.854693 13.9077 2.45484 15.6932C4.05498 17.4788 6.27844 18.5835 8.66802 18.78C11.0576 18.9766 13.4317 18.2501 15.3021 16.75L19.1354 20.5833C19.2323 20.681 19.3475 20.7585 19.4744 20.8113C19.6013 20.8642 19.7375 20.8915 19.875 20.8915C20.0125 20.8915 20.1487 20.8642 20.2756 20.8113C20.4025 20.7585 20.5177 20.681 20.6146 20.5833C20.8023 20.3891 20.9073 20.1295 20.9073 19.8594C20.9073 19.5892 20.8023 19.3297 20.6146 19.1354ZM9.45833 16.75C8.01618 16.75 6.60641 16.3223 5.4073 15.5211C4.20819 14.7199 3.2736 13.5811 2.72171 12.2487C2.16982 10.9164 2.02542 9.45024 2.30677 8.0358C2.58812 6.62135 3.28259 5.3221 4.30235 4.30234C5.3221 3.28258 6.62136 2.58812 8.0358 2.30677C9.45024 2.02542 10.9164 2.16982 12.2487 2.72171C13.5811 3.2736 14.7199 4.20819 15.5211 5.4073C16.3224 6.60641 16.75 8.01617 16.75 9.45833C16.75 11.3922 15.9818 13.2469 14.6143 14.6143C13.2469 15.9818 11.3922 16.75 9.45833 16.75Z" fill="white"/>
</svg>
