<svg width="20" height="20" viewBox="0 0 20 20" fill="none" xmlns="http://www.w3.org/2000/svg">
<path d="M15.5863 12.8944L3.74012 10.7925C3.5277 10.7549 3.32495 10.8965 3.28726 11.1089L3.02111 12.6089C2.98342 12.8213 3.12507 13.0241 3.33748 13.0618L15.1837 15.1637C15.3961 15.2014 15.5989 15.0597 15.6366 14.8473L15.9027 13.3473C15.9404 13.1349 15.7988 12.9321 15.5863 12.8944Z" fill="white"/>
<path d="M7.81024 5.32579L5.49704 4.91535C5.28462 4.87766 5.08187 5.01931 5.04418 5.23173L4.63053 7.563C4.59284 7.77542 4.73449 7.97817 4.94691 8.01586L7.26011 8.4263C7.47253 8.46399 7.67528 8.32234 7.71297 8.10993L8.12662 5.77865C8.16431 5.56623 8.02266 5.36348 7.81024 5.32579Z" fill="white"/>
<path d="M15.9092 6.76282L13.596 6.35238C13.3836 6.31469 13.1808 6.45634 13.1431 6.66876L12.7295 9.00004C12.6918 9.21245 12.8334 9.41521 13.0458 9.4529L15.359 9.86333C15.5715 9.90102 15.7742 9.75938 15.8119 9.54696L16.2256 7.21568C16.2632 7.00326 16.1216 6.80051 15.9092 6.76282Z" fill="white"/>
</svg>
