<svg width="128" height="128" viewBox="0 0 128 128" fill="none" xmlns="http://www.w3.org/2000/svg">
<path d="M40.7025 65.5849L64 18.9899L87.2976 65.5849C90.2901 65.7199 93.0951 65.9499 95.6726 66.3274L67.2 9.38741C66.5925 8.17491 65.355 7.40991 64 7.40991C62.645 7.40991 61.405 8.17491 60.8 9.38741L32.33 66.3274C34.905 65.9499 37.71 65.7199 40.7025 65.5849Z" fill="white"/>
<path d="M120.213 115.41L109.693 94.37C108.373 96.5375 106.683 98.5275 104.668 100.327L111.22 113.432H16.78L23.3325 100.327C21.32 98.5275 19.63 96.54 18.3075 94.37L7.78752 115.41C7.23252 116.52 7.29252 117.837 7.94502 118.893C8.59752 119.948 9.75002 120.59 10.99 120.59H117.013C118.253 120.59 119.405 119.948 120.058 118.893C120.708 117.837 120.768 116.52 120.213 115.41Z" fill="white"/>
<path d="M93.7875 104.882C92.555 104.882 91.405 104.247 90.75 103.195L63.9825 60.1673L37.2525 103.192C36.5675 104.292 35.3475 104.945 34.0475 104.877C32.7525 104.817 31.5925 104.062 31.0125 102.902L1.20501 43.2923C0.320014 41.5248 1.03751 39.3748 2.80501 38.4923C4.57251 37.6073 6.72251 38.3248 7.60501 40.0923L34.55 93.9798L60.94 51.4998C61.5925 50.4498 62.7425 49.8098 63.98 49.8098C65.2175 49.8098 66.365 50.4473 67.02 51.4973L93.4475 93.9823L120.393 40.0898C121.278 38.3223 123.428 37.6048 125.193 38.4898C126.96 39.3748 127.678 41.5223 126.793 43.2898L96.9875 102.905C96.4075 104.065 95.2475 104.82 93.9525 104.88C93.8975 104.882 93.8425 104.882 93.7875 104.882Z" fill="white"/>
</svg>