<svg width="10" height="8" viewBox="0 0 10 8" fill="none" xmlns="http://www.w3.org/2000/svg">
<path d="M9.77093 0.210475C9.70478 0.143783 9.62608 0.0908472 9.53938 0.0547228C9.45267 0.0185985 9.35966 0 9.26573 0C9.1718 0 9.07879 0.0185985 8.99208 0.0547228C8.90538 0.0908472 8.82668 0.143783 8.76053 0.210475L3.45949 5.51863L1.23235 3.28436C1.16367 3.21802 1.08259 3.16585 0.993752 3.13084C0.904911 3.09583 0.810045 3.07866 0.714569 3.08031C0.619093 3.08197 0.524877 3.10241 0.437301 3.14047C0.349725 3.17853 0.270503 3.23347 0.204159 3.30215C0.137815 3.37083 0.085649 3.45191 0.050638 3.54075C0.015627 3.62959 -0.00154303 3.72445 0.000108809 3.81993C0.00176064 3.91541 0.0222019 4.00962 0.0602651 4.0972C0.0983283 4.18478 0.153268 4.264 0.221948 4.33034L2.95429 7.06269C3.02044 7.12938 3.09914 7.18231 3.18585 7.21844C3.27256 7.25456 3.36556 7.27316 3.45949 7.27316C3.55343 7.27316 3.64643 7.25456 3.73314 7.21844C3.81985 7.18231 3.89855 7.12938 3.96469 7.06269L9.77093 1.25645C9.84315 1.18982 9.9008 1.10895 9.94022 1.01894C9.97965 0.92893 10 0.831729 10 0.733463C10 0.635197 9.97965 0.537996 9.94022 0.447985C9.9008 0.357975 9.84315 0.277106 9.77093 0.210475Z" fill="#3C94E4"/>
</svg>
